<svg id="Layer_1" data-name="Layer 1" xmlns="http://www.w3.org/2000/svg" viewBox="0 0 360 359.96"><defs><style>.cls-1{fill:#594a42;}.cls-1,.cls-2{stroke:#505050;stroke-linecap:round;stroke-miterlimit:10;stroke-width:4.94px;}.cls-2{fill:none;}.cls-3{fill:#58595b;}</style></defs><path class="cls-1" d="M474,173.81c-29.58,26.7-26.93,77.47-9,108.71,10.75,18.7,30.4,36.34,39.59,32.22,6-2.69,7.22-14.53,8.43-26.55a90.46,90.46,0,0,0-1-25.59c-3.85-19.94-11.35-20.61-15.68-39.4-3.42-14.81-1.74-27.33-.75-34.72a112.92,112.92,0,0,1,8.3-29.87A67.32,67.32,0,0,0,474,173.81Z" transform="translate(-323.67 -115)"/><path class="cls-1" d="M549.26,298c30.07-27.15,24-78.36,9-108.71-6.57-13.29-20.16-33.73-30.38-31.39-7.56,1.73-11.12,15.39-14,26.4a83.46,83.46,0,0,0-2.3,30.63c1.72,13.71,5.57,14.44,11,34.22,3.1,11.35,5.86,21.43,5.07,34.18a76.43,76.43,0,0,1-8.3,29.87A67.32,67.32,0,0,0,549.26,298Z" transform="translate(-323.67 -115)"/><path class="cls-2" d="M512.15,395.26l-80.09-99.75c-7-9.15-27.63-38.68-24.08-77.62,4.54-49.81,47.4-100.56,103.15-100.42,55.31.13,95.87,48.22,102.12,95.66,6.16,46.69-22.39,81.57-28,88.17Z" transform="translate(-323.67 -115)"/><path class="cls-3" d="M339.42,462.05v4.46c0,5.38-2.69,8.45-7.87,8.45s-7.88-3.07-7.88-8.45V449c0-5.38,2.69-8.45,7.88-8.45s7.87,3.07,7.87,8.45v3.26h-5v-3.6c0-2.4-1.06-3.31-2.74-3.31s-2.73.91-2.73,3.31v18.15c0,2.4,1.05,3.26,2.73,3.26s2.74-.86,2.74-3.26v-4.8Z" transform="translate(-323.67 -115)"/><path class="cls-3" d="M356.6,449c0-5.38,2.83-8.45,8-8.45s8,3.07,8,8.45v17.47c0,5.38-2.84,8.45-8,8.45s-8-3.07-8-8.45Zm5.28,17.81c0,2.4,1.06,3.31,2.74,3.31s2.73-.91,2.73-3.31V448.7c0-2.4-1.05-3.31-2.73-3.31s-2.74.91-2.74,3.31Z" transform="translate(-323.67 -115)"/><path class="cls-3" d="M395.72,455.9h6.82v4.8h-6.82v13.88h-5.28V441h14v4.8h-8.69Z" transform="translate(-323.67 -115)"/><path class="cls-3" d="M426.63,455.9h6.82v4.8h-6.82v13.88h-5.28V441h14v4.8h-8.69Z" transform="translate(-323.67 -115)"/><path class="cls-3" d="M457.54,455.13h7.25v4.8h-7.25v9.84h9.13v4.81H452.26V441h14.41v4.8h-9.13Z" transform="translate(-323.67 -115)"/><path class="cls-3" d="M489.61,455.13h7.25v4.8h-7.25v9.84h9.12v4.81h-14.4V441h14.4v4.8h-9.12Z" transform="translate(-323.67 -115)"/><path class="cls-3" d="M545.34,440.59c5.13,0,7.77,3.07,7.77,8.45v1h-5V448.7c0-2.4-1-3.31-2.64-3.31s-2.64.91-2.64,3.31,1.06,4.27,4.51,7.3c4.42,3.89,5.81,6.67,5.81,10.51,0,5.38-2.69,8.45-7.87,8.45s-7.87-3.07-7.87-8.45v-2.06h5v2.4c0,2.4,1.05,3.26,2.74,3.26s2.73-.86,2.73-3.26-1-4.28-4.51-7.3c-4.42-3.89-5.81-6.67-5.81-10.51C537.56,443.66,540.2,440.59,545.34,440.59Z" transform="translate(-323.67 -115)"/><path class="cls-3" d="M586.23,449.28v4.37c0,5.37-2.59,8.3-7.87,8.3h-2.5v12.63h-5.28V441h7.78C583.64,441,586.23,443.9,586.23,449.28Zm-10.37-3.51v11.38h2.5c1.68,0,2.59-.77,2.59-3.17v-5c0-2.4-.91-3.17-2.59-3.17Z" transform="translate(-323.67 -115)"/><path class="cls-3" d="M619.55,474.58h-5.33l-.91-6.1h-6.48l-.92,6.1h-4.84L606.44,441h7.73Zm-12-10.66h5.09l-2.5-17H610Z" transform="translate(-323.67 -115)"/><path class="cls-3" d="M651.66,462.05v4.46c0,5.38-2.69,8.45-7.87,8.45s-7.88-3.07-7.88-8.45V449c0-5.38,2.69-8.45,7.88-8.45s7.87,3.07,7.87,8.45v3.26h-5v-3.6c0-2.4-1.06-3.31-2.74-3.31s-2.74.91-2.74,3.31v18.15c0,2.4,1.06,3.26,2.74,3.26s2.74-.86,2.74-3.26v-4.8Z" transform="translate(-323.67 -115)"/><path class="cls-3" d="M674.55,455.13h7.25v4.8h-7.25v9.84h9.12v4.81h-14.4V441h14.4v4.8h-9.12Z" transform="translate(-323.67 -115)"/></svg>