<svg id="Capa_1" enable-background="new 0 0 512 512" height="512" viewBox="0 0 512 512" width="512" xmlns="http://www.w3.org/2000/svg"><g><g><g><g><g><path d="m118.114 199.325-42.349-42.349c-5.859-5.859-5.859-15.352 0-21.211s15.352-5.859 21.211 0l42.349 42.349c5.859 5.859 5.859 15.352 0 21.211s-15.351 5.86-21.211 0z" fill="#4d5e80"/></g></g></g></g><g><g><g><g><path d="m372.675 199.325c-5.859-5.859-5.859-15.352 0-21.211l42.349-42.349c5.859-5.859 15.351-5.859 21.211 0 5.859 5.859 5.859 15.352 0 21.211l-42.349 42.349c-5.859 5.859-15.352 5.86-21.211 0z" fill="#3d4566"/></g></g></g></g><g><g><g><g><path d="m271 45v91c0 8.399-6.599 15-15 15s-15-6.601-15-15v-91c0-8.401 6.599-15 15-15s15 6.599 15 15z" fill="#4d5e80"/></g></g></g></g><g><g><g><path d="m256 151v-121c8.401 0 15 6.599 15 15v91c0 8.399-6.599 15-15 15z" fill="#3d4566"/></g></g></g><g><g><g><g><path d="m256 121c-107.401 0-195 87.599-195 195 0 107.399 87.599 196 195 196s195-88.601 195-196c0-107.401-87.599-195-195-195z" fill="#ffbe40"/></g></g></g></g><g><g><g><path d="m451 316c0 107.399-87.599 196-195 196v-391c107.401 0 195 87.599 195 195z" fill="#ff9f40"/></g></g></g><g><g><g><g><path d="m256 181c-74.399 0-135 60.599-135 135 0 74.399 60.601 136 135 136s135-61.601 135-136c0-74.401-60.601-135-135-135z" fill="#f3f5f9"/></g></g></g></g><g><g><g><path d="m391 316c0 74.399-60.601 136-135 136v-271c74.399 0 135 60.599 135 135z" fill="#e1e6f0"/></g></g></g><g><g><g><g><path d="m54.555 178.188c-5.859-5.859-5.859-15.352 0-21.211l42.422-42.422c5.859-5.859 15.352-5.859 21.211 0s5.859 15.352 0 21.211l-42.422 42.422c-5.86 5.859-15.352 5.859-21.211 0z" fill="#ffbe40"/></g></g></g></g><g><g><g><path d="m309.013 262.987c-5.859-5.859-15.352-5.859-21.211 0l-42.407 42.407c-5.859 5.859-5.859 15.352 0 21.211s15.352 5.859 21.211 0l42.407-42.407c5.859-5.859 5.859-15.351 0-21.211z" fill="#4d5e80"/></g></g></g><g><g><g><path d="m266.605 326.605 42.407-42.407c5.859-5.859 5.859-15.352 0-21.211l-63.618 63.618c5.86 5.86 15.352 5.86 21.211 0z" fill="#3d4566"/></g></g></g><g><g><g><g><path d="m316 0h-120c-8.401 0-15 6.599-15 15v30c0 8.399 6.599 15 15 15h120c8.401 0 15-6.601 15-15v-30c0-8.401-6.599-15-15-15z" fill="#ffbe40"/></g></g></g></g><g><g><g><path d="m316 60h-60v-60h60c8.401 0 15 6.599 15 15v30c0 8.399-6.599 15-15 15z" fill="#ff9f40"/></g></g></g><g><g><g><g><path d="m436.234 178.188-42.422-42.422c-5.859-5.859-5.859-15.352 0-21.211s15.352-5.859 21.211 0l42.422 42.422c5.859 5.859 5.859 15.352 0 21.211s-15.351 5.859-21.211 0z" fill="#ff9f40"/></g></g></g></g></g></svg>